<mxfile host="app.diagrams.net" modified="2020-12-21T17:20:39.356Z" agent="5.0 (Windows)" etag="EBu7weg5FzIQ-0RkMCm2" version="14.1.1" type="github">
  <diagram id="TvvjJJYNNTWUt_TaYmTE" name="Page-1">
    <mxGraphModel dx="1038" dy="587" grid="1" gridSize="10" guides="1" tooltips="1" connect="1" arrows="1" fold="1" page="1" pageScale="1" pageWidth="827" pageHeight="1169" math="0" shadow="0">
      <root>
        <mxCell id="0" />
        <mxCell id="1" parent="0" />
        <mxCell id="P3YJ1uOnPOSW2vBNwc0p-4" value="c4" style="edgeStyle=orthogonalEdgeStyle;rounded=0;orthogonalLoop=1;jettySize=auto;html=1;exitX=0;exitY=0.5;exitDx=0;exitDy=0;" edge="1" parent="1" source="P3YJ1uOnPOSW2vBNwc0p-1">
          <mxGeometry relative="1" as="geometry">
            <mxPoint x="100" y="150" as="targetPoint" />
          </mxGeometry>
        </mxCell>
        <mxCell id="P3YJ1uOnPOSW2vBNwc0p-32" style="edgeStyle=orthogonalEdgeStyle;rounded=0;orthogonalLoop=1;jettySize=auto;html=1;entryX=0.75;entryY=0;entryDx=0;entryDy=0;" edge="1" parent="1" source="P3YJ1uOnPOSW2vBNwc0p-1" target="P3YJ1uOnPOSW2vBNwc0p-26">
          <mxGeometry relative="1" as="geometry" />
        </mxCell>
        <mxCell id="P3YJ1uOnPOSW2vBNwc0p-40" style="edgeStyle=orthogonalEdgeStyle;rounded=0;orthogonalLoop=1;jettySize=auto;html=1;entryX=0.075;entryY=0.96;entryDx=0;entryDy=0;entryPerimeter=0;" edge="1" parent="1" source="P3YJ1uOnPOSW2vBNwc0p-1" target="P3YJ1uOnPOSW2vBNwc0p-18">
          <mxGeometry relative="1" as="geometry">
            <Array as="points">
              <mxPoint x="180" y="220" />
              <mxPoint x="267" y="220" />
            </Array>
          </mxGeometry>
        </mxCell>
        <mxCell id="P3YJ1uOnPOSW2vBNwc0p-41" style="edgeStyle=orthogonalEdgeStyle;rounded=0;orthogonalLoop=1;jettySize=auto;html=1;entryX=-0.05;entryY=0.9;entryDx=0;entryDy=0;entryPerimeter=0;" edge="1" parent="1" source="P3YJ1uOnPOSW2vBNwc0p-1" target="P3YJ1uOnPOSW2vBNwc0p-19">
          <mxGeometry relative="1" as="geometry">
            <Array as="points">
              <mxPoint x="180" y="220" />
              <mxPoint x="390" y="220" />
            </Array>
          </mxGeometry>
        </mxCell>
        <mxCell id="P3YJ1uOnPOSW2vBNwc0p-1" value="FA" style="whiteSpace=wrap;html=1;aspect=fixed;" vertex="1" parent="1">
          <mxGeometry x="150" y="120" width="60" height="60" as="geometry" />
        </mxCell>
        <mxCell id="P3YJ1uOnPOSW2vBNwc0p-2" value="x3" style="endArrow=classic;html=1;entryX=0.25;entryY=0;entryDx=0;entryDy=0;" edge="1" parent="1" target="P3YJ1uOnPOSW2vBNwc0p-1">
          <mxGeometry width="50" height="50" relative="1" as="geometry">
            <mxPoint x="165" y="70" as="sourcePoint" />
            <mxPoint x="220" y="110" as="targetPoint" />
          </mxGeometry>
        </mxCell>
        <mxCell id="P3YJ1uOnPOSW2vBNwc0p-3" value="y3" style="endArrow=classic;html=1;entryX=0.75;entryY=0;entryDx=0;entryDy=0;" edge="1" parent="1" target="P3YJ1uOnPOSW2vBNwc0p-1">
          <mxGeometry width="50" height="50" relative="1" as="geometry">
            <mxPoint x="195" y="70" as="sourcePoint" />
            <mxPoint x="216" y="120" as="targetPoint" />
          </mxGeometry>
        </mxCell>
        <mxCell id="P3YJ1uOnPOSW2vBNwc0p-5" value="c2" style="edgeStyle=orthogonalEdgeStyle;rounded=0;orthogonalLoop=1;jettySize=auto;html=1;exitX=0;exitY=0.5;exitDx=0;exitDy=0;" edge="1" parent="1" source="P3YJ1uOnPOSW2vBNwc0p-6">
          <mxGeometry relative="1" as="geometry">
            <mxPoint x="320" y="150" as="targetPoint" />
          </mxGeometry>
        </mxCell>
        <mxCell id="P3YJ1uOnPOSW2vBNwc0p-22" style="edgeStyle=orthogonalEdgeStyle;rounded=0;orthogonalLoop=1;jettySize=auto;html=1;entryX=0;entryY=0.5;entryDx=0;entryDy=0;entryPerimeter=0;" edge="1" parent="1" source="P3YJ1uOnPOSW2vBNwc0p-6" target="P3YJ1uOnPOSW2vBNwc0p-19">
          <mxGeometry relative="1" as="geometry" />
        </mxCell>
        <mxCell id="P3YJ1uOnPOSW2vBNwc0p-39" style="edgeStyle=orthogonalEdgeStyle;rounded=0;orthogonalLoop=1;jettySize=auto;html=1;entryX=0.75;entryY=0;entryDx=0;entryDy=0;" edge="1" parent="1" source="P3YJ1uOnPOSW2vBNwc0p-6" target="P3YJ1uOnPOSW2vBNwc0p-29">
          <mxGeometry relative="1" as="geometry">
            <Array as="points">
              <mxPoint x="400" y="200" />
              <mxPoint x="450" y="200" />
              <mxPoint x="450" y="390" />
              <mxPoint x="415" y="390" />
            </Array>
          </mxGeometry>
        </mxCell>
        <mxCell id="P3YJ1uOnPOSW2vBNwc0p-6" value="FA" style="whiteSpace=wrap;html=1;aspect=fixed;" vertex="1" parent="1">
          <mxGeometry x="370" y="120" width="60" height="60" as="geometry" />
        </mxCell>
        <mxCell id="P3YJ1uOnPOSW2vBNwc0p-7" value="x1" style="endArrow=classic;html=1;entryX=0.25;entryY=0;entryDx=0;entryDy=0;" edge="1" parent="1" target="P3YJ1uOnPOSW2vBNwc0p-6">
          <mxGeometry width="50" height="50" relative="1" as="geometry">
            <mxPoint x="385" y="70" as="sourcePoint" />
            <mxPoint x="440" y="110" as="targetPoint" />
          </mxGeometry>
        </mxCell>
        <mxCell id="P3YJ1uOnPOSW2vBNwc0p-8" value="y1" style="endArrow=classic;html=1;entryX=0.75;entryY=0;entryDx=0;entryDy=0;" edge="1" parent="1" target="P3YJ1uOnPOSW2vBNwc0p-6">
          <mxGeometry width="50" height="50" relative="1" as="geometry">
            <mxPoint x="415" y="70" as="sourcePoint" />
            <mxPoint x="436" y="120" as="targetPoint" />
          </mxGeometry>
        </mxCell>
        <mxCell id="P3YJ1uOnPOSW2vBNwc0p-9" value="c3" style="edgeStyle=orthogonalEdgeStyle;rounded=0;orthogonalLoop=1;jettySize=auto;html=1;exitX=0;exitY=0.5;exitDx=0;exitDy=0;entryX=1;entryY=0.5;entryDx=0;entryDy=0;" edge="1" parent="1" source="P3YJ1uOnPOSW2vBNwc0p-10" target="P3YJ1uOnPOSW2vBNwc0p-1">
          <mxGeometry relative="1" as="geometry">
            <mxPoint x="210" y="129" as="targetPoint" />
            <mxPoint x="260" y="129" as="sourcePoint" />
          </mxGeometry>
        </mxCell>
        <mxCell id="P3YJ1uOnPOSW2vBNwc0p-21" style="edgeStyle=orthogonalEdgeStyle;rounded=0;orthogonalLoop=1;jettySize=auto;html=1;entryX=0;entryY=0.5;entryDx=0;entryDy=0;entryPerimeter=0;" edge="1" parent="1" source="P3YJ1uOnPOSW2vBNwc0p-10" target="P3YJ1uOnPOSW2vBNwc0p-18">
          <mxGeometry relative="1" as="geometry" />
        </mxCell>
        <mxCell id="P3YJ1uOnPOSW2vBNwc0p-42" style="edgeStyle=orthogonalEdgeStyle;rounded=0;orthogonalLoop=1;jettySize=auto;html=1;entryX=0.25;entryY=0;entryDx=0;entryDy=0;" edge="1" parent="1" source="P3YJ1uOnPOSW2vBNwc0p-10" target="P3YJ1uOnPOSW2vBNwc0p-31">
          <mxGeometry relative="1" as="geometry">
            <Array as="points">
              <mxPoint x="290" y="200" />
              <mxPoint x="240" y="200" />
              <mxPoint x="240" y="305" />
              <mxPoint x="275" y="305" />
            </Array>
          </mxGeometry>
        </mxCell>
        <mxCell id="P3YJ1uOnPOSW2vBNwc0p-10" value="FA" style="whiteSpace=wrap;html=1;aspect=fixed;" vertex="1" parent="1">
          <mxGeometry x="260" y="120" width="60" height="60" as="geometry" />
        </mxCell>
        <mxCell id="P3YJ1uOnPOSW2vBNwc0p-11" value="x2" style="endArrow=classic;html=1;entryX=0.25;entryY=0;entryDx=0;entryDy=0;" edge="1" parent="1" target="P3YJ1uOnPOSW2vBNwc0p-10">
          <mxGeometry width="50" height="50" relative="1" as="geometry">
            <mxPoint x="275" y="70" as="sourcePoint" />
            <mxPoint x="330" y="110" as="targetPoint" />
          </mxGeometry>
        </mxCell>
        <mxCell id="P3YJ1uOnPOSW2vBNwc0p-12" value="y2" style="endArrow=classic;html=1;entryX=0.75;entryY=0;entryDx=0;entryDy=0;" edge="1" parent="1" target="P3YJ1uOnPOSW2vBNwc0p-10">
          <mxGeometry width="50" height="50" relative="1" as="geometry">
            <mxPoint x="305" y="70" as="sourcePoint" />
            <mxPoint x="326" y="120" as="targetPoint" />
          </mxGeometry>
        </mxCell>
        <mxCell id="P3YJ1uOnPOSW2vBNwc0p-13" value="c1" style="edgeStyle=orthogonalEdgeStyle;rounded=0;orthogonalLoop=1;jettySize=auto;html=1;exitX=0;exitY=0.5;exitDx=0;exitDy=0;" edge="1" parent="1" source="P3YJ1uOnPOSW2vBNwc0p-14">
          <mxGeometry relative="1" as="geometry">
            <mxPoint x="430" y="150" as="targetPoint" />
          </mxGeometry>
        </mxCell>
        <mxCell id="P3YJ1uOnPOSW2vBNwc0p-38" value="s0" style="edgeStyle=orthogonalEdgeStyle;rounded=0;orthogonalLoop=1;jettySize=auto;html=1;" edge="1" parent="1" source="P3YJ1uOnPOSW2vBNwc0p-14">
          <mxGeometry relative="1" as="geometry">
            <mxPoint x="510" y="530" as="targetPoint" />
          </mxGeometry>
        </mxCell>
        <mxCell id="P3YJ1uOnPOSW2vBNwc0p-14" value="FA" style="whiteSpace=wrap;html=1;aspect=fixed;" vertex="1" parent="1">
          <mxGeometry x="480" y="120" width="60" height="60" as="geometry" />
        </mxCell>
        <mxCell id="P3YJ1uOnPOSW2vBNwc0p-15" value="x0" style="endArrow=classic;html=1;entryX=0.25;entryY=0;entryDx=0;entryDy=0;" edge="1" parent="1" target="P3YJ1uOnPOSW2vBNwc0p-14">
          <mxGeometry width="50" height="50" relative="1" as="geometry">
            <mxPoint x="495" y="70" as="sourcePoint" />
            <mxPoint x="550" y="110" as="targetPoint" />
          </mxGeometry>
        </mxCell>
        <mxCell id="P3YJ1uOnPOSW2vBNwc0p-16" value="y0" style="endArrow=classic;html=1;entryX=0.75;entryY=0;entryDx=0;entryDy=0;" edge="1" parent="1" target="P3YJ1uOnPOSW2vBNwc0p-14">
          <mxGeometry width="50" height="50" relative="1" as="geometry">
            <mxPoint x="525" y="70" as="sourcePoint" />
            <mxPoint x="546" y="120" as="targetPoint" />
          </mxGeometry>
        </mxCell>
        <mxCell id="P3YJ1uOnPOSW2vBNwc0p-17" value="c0 = 0" style="edgeStyle=orthogonalEdgeStyle;rounded=0;orthogonalLoop=1;jettySize=auto;html=1;entryX=1;entryY=0.5;entryDx=0;entryDy=0;" edge="1" parent="1" target="P3YJ1uOnPOSW2vBNwc0p-14">
          <mxGeometry relative="1" as="geometry">
            <mxPoint x="430" y="172" as="targetPoint" />
            <mxPoint x="600" y="150" as="sourcePoint" />
          </mxGeometry>
        </mxCell>
        <mxCell id="P3YJ1uOnPOSW2vBNwc0p-24" style="edgeStyle=orthogonalEdgeStyle;rounded=0;orthogonalLoop=1;jettySize=auto;html=1;entryX=0.175;entryY=0.75;entryDx=0;entryDy=0;entryPerimeter=0;" edge="1" parent="1" source="P3YJ1uOnPOSW2vBNwc0p-18" target="P3YJ1uOnPOSW2vBNwc0p-23">
          <mxGeometry relative="1" as="geometry" />
        </mxCell>
        <mxCell id="P3YJ1uOnPOSW2vBNwc0p-18" value="" style="shape=or;whiteSpace=wrap;html=1;rotation=90;" vertex="1" parent="1">
          <mxGeometry x="270" y="250" width="40" height="50" as="geometry" />
        </mxCell>
        <mxCell id="P3YJ1uOnPOSW2vBNwc0p-25" style="edgeStyle=orthogonalEdgeStyle;rounded=0;orthogonalLoop=1;jettySize=auto;html=1;entryX=0.175;entryY=0.25;entryDx=0;entryDy=0;entryPerimeter=0;" edge="1" parent="1" source="P3YJ1uOnPOSW2vBNwc0p-19" target="P3YJ1uOnPOSW2vBNwc0p-23">
          <mxGeometry relative="1" as="geometry" />
        </mxCell>
        <mxCell id="P3YJ1uOnPOSW2vBNwc0p-19" value="" style="shape=or;whiteSpace=wrap;html=1;rotation=90;" vertex="1" parent="1">
          <mxGeometry x="390" y="250" width="40" height="50" as="geometry" />
        </mxCell>
        <mxCell id="P3YJ1uOnPOSW2vBNwc0p-43" style="edgeStyle=orthogonalEdgeStyle;rounded=0;orthogonalLoop=1;jettySize=auto;html=1;entryX=0.25;entryY=0;entryDx=0;entryDy=0;" edge="1" parent="1" source="P3YJ1uOnPOSW2vBNwc0p-23" target="P3YJ1uOnPOSW2vBNwc0p-29">
          <mxGeometry relative="1" as="geometry" />
        </mxCell>
        <mxCell id="P3YJ1uOnPOSW2vBNwc0p-44" style="edgeStyle=orthogonalEdgeStyle;rounded=0;orthogonalLoop=1;jettySize=auto;html=1;entryX=0.617;entryY=0.033;entryDx=0;entryDy=0;entryPerimeter=0;" edge="1" parent="1" source="P3YJ1uOnPOSW2vBNwc0p-23" target="P3YJ1uOnPOSW2vBNwc0p-31">
          <mxGeometry relative="1" as="geometry" />
        </mxCell>
        <mxCell id="P3YJ1uOnPOSW2vBNwc0p-23" value="" style="shape=xor;whiteSpace=wrap;html=1;rotation=90;" vertex="1" parent="1">
          <mxGeometry x="320" y="320" width="60" height="80" as="geometry" />
        </mxCell>
        <mxCell id="P3YJ1uOnPOSW2vBNwc0p-27" value="c3" style="edgeStyle=orthogonalEdgeStyle;rounded=0;orthogonalLoop=1;jettySize=auto;html=1;" edge="1" parent="1" source="P3YJ1uOnPOSW2vBNwc0p-26">
          <mxGeometry relative="1" as="geometry">
            <mxPoint x="100" y="460" as="targetPoint" />
          </mxGeometry>
        </mxCell>
        <mxCell id="P3YJ1uOnPOSW2vBNwc0p-34" value="s3" style="edgeStyle=orthogonalEdgeStyle;rounded=0;orthogonalLoop=1;jettySize=auto;html=1;" edge="1" parent="1" source="P3YJ1uOnPOSW2vBNwc0p-26">
          <mxGeometry relative="1" as="geometry">
            <mxPoint x="180" y="530" as="targetPoint" />
          </mxGeometry>
        </mxCell>
        <mxCell id="P3YJ1uOnPOSW2vBNwc0p-26" value="FA" style="whiteSpace=wrap;html=1;aspect=fixed;" vertex="1" parent="1">
          <mxGeometry x="150" y="430" width="60" height="60" as="geometry" />
        </mxCell>
        <mxCell id="P3YJ1uOnPOSW2vBNwc0p-28" value="c1" style="edgeStyle=orthogonalEdgeStyle;rounded=0;orthogonalLoop=1;jettySize=auto;html=1;" edge="1" parent="1" source="P3YJ1uOnPOSW2vBNwc0p-29">
          <mxGeometry relative="1" as="geometry">
            <mxPoint x="320" y="460" as="targetPoint" />
          </mxGeometry>
        </mxCell>
        <mxCell id="P3YJ1uOnPOSW2vBNwc0p-29" value="FA" style="whiteSpace=wrap;html=1;aspect=fixed;" vertex="1" parent="1">
          <mxGeometry x="370" y="430" width="60" height="60" as="geometry" />
        </mxCell>
        <mxCell id="P3YJ1uOnPOSW2vBNwc0p-30" value="c2" style="edgeStyle=orthogonalEdgeStyle;rounded=0;orthogonalLoop=1;jettySize=auto;html=1;" edge="1" parent="1" source="P3YJ1uOnPOSW2vBNwc0p-31">
          <mxGeometry relative="1" as="geometry">
            <mxPoint x="210" y="460" as="targetPoint" />
          </mxGeometry>
        </mxCell>
        <mxCell id="P3YJ1uOnPOSW2vBNwc0p-31" value="FA" style="whiteSpace=wrap;html=1;aspect=fixed;" vertex="1" parent="1">
          <mxGeometry x="260" y="430" width="60" height="60" as="geometry" />
        </mxCell>
        <mxCell id="P3YJ1uOnPOSW2vBNwc0p-33" value="0" style="endArrow=classic;html=1;entryX=0.25;entryY=0;entryDx=0;entryDy=0;" edge="1" parent="1" target="P3YJ1uOnPOSW2vBNwc0p-26">
          <mxGeometry width="50" height="50" relative="1" as="geometry">
            <mxPoint x="165" y="380" as="sourcePoint" />
            <mxPoint x="440" y="330" as="targetPoint" />
          </mxGeometry>
        </mxCell>
        <mxCell id="P3YJ1uOnPOSW2vBNwc0p-35" value="s1" style="edgeStyle=orthogonalEdgeStyle;rounded=0;orthogonalLoop=1;jettySize=auto;html=1;" edge="1" parent="1">
          <mxGeometry relative="1" as="geometry">
            <mxPoint x="399.5" y="530" as="targetPoint" />
            <mxPoint x="399.5" y="490" as="sourcePoint" />
          </mxGeometry>
        </mxCell>
        <mxCell id="P3YJ1uOnPOSW2vBNwc0p-36" value="s2" style="edgeStyle=orthogonalEdgeStyle;rounded=0;orthogonalLoop=1;jettySize=auto;html=1;" edge="1" parent="1">
          <mxGeometry relative="1" as="geometry">
            <mxPoint x="289.5" y="530" as="targetPoint" />
            <mxPoint x="289.5" y="490" as="sourcePoint" />
          </mxGeometry>
        </mxCell>
        <mxCell id="P3YJ1uOnPOSW2vBNwc0p-37" value="" style="endArrow=classic;html=1;entryX=1;entryY=0.5;entryDx=0;entryDy=0;rounded=0;edgeStyle=orthogonalEdgeStyle;" edge="1" parent="1" target="P3YJ1uOnPOSW2vBNwc0p-29">
          <mxGeometry width="50" height="50" relative="1" as="geometry">
            <mxPoint x="570" y="160" as="sourcePoint" />
            <mxPoint x="440" y="330" as="targetPoint" />
            <Array as="points">
              <mxPoint x="570" y="460" />
            </Array>
          </mxGeometry>
        </mxCell>
      </root>
    </mxGraphModel>
  </diagram>
</mxfile>
